<?xml version="1.0" encoding="UTF-8"?>
<svg id="_图层_1" data-name="图层_1" xmlns="http://www.w3.org/2000/svg" version="1.1" viewBox="0 0 800 800">
  <!-- Generator: Adobe Illustrator 29.1.0, SVG Export Plug-In . SVG Version: 2.1.0 Build 142)  -->
  <path d="M400,0C621.26,0,800,178.76,800,400s-178.76,400-400,400S0,621.24,0,400,178.76,0,400,0h0ZM483.94,341.08c-22.08,1.52-19.92-9.92-6.84-26.54,29.84-38.6,85.16-91.1,87.66-129.4,3.38-49.74-48.2-65.14-101.36-65.14-37,.9-75.24,10.86-101.34,19.9-89.84,30.74-146.12,79.02-181.88,133.32-37,53.7-25.5,105.26,54.4,106.78,60.32-2.4,101.04-18.7,142.08-39.2.32,0-114.1,31.66-156.4,8.44-4.64-2.42-9.3-5.74-10.56-15.08,0-19,32.34-38.9,51.3-45.24v-32.56c41.19,14.15,86.7,7.28,121.88-18.4,1.58,3.84,2.32,7.94,2.18,12.06h6.52c.85-6.55-1.09-13.15-5.35-18.19-4.26-5.05-10.43-8.08-17.03-8.35,4.36,3.32,7.46,6.04,9,8.46l-.6.6-.32.28c-49.74,33.8-97.92,18.12-102.6,17.2l27.68-26.22-7.78-19c55.04-18.76,100.4-32.3,175.98-45.28l-16.8-13.28,8.7-5.14c44.8,12.08,74.94,21.12,73.4,44.06-.86,4.64-2.44,9.1-4.68,13.28-13.38,25.62-52.54,66.96-68.4,84.74-10.26,11.76-20.5,22.62-27.66,33.48-8.08,11.16-12.12,21.4-12.44,30.76,1.56,75.72,231.94-35.6,277.32-64.84-66.22,27.44-138.06,53.68-216.06,58.5h0ZM534.28,167.04c2.16,4.74,2.92,9.96,2.2,15.08.6-6.02,0-11.16-2.2-15.08h0ZM226.4,497.2c-4.8,5-10.8,9.6-18,14-7.2,4-14,6.8-20.4,8.4v23.2c13.2-3.8,24-9.6,32.6-17.4v114.6h23.4v-142.8h-17.6ZM319.18,494.4c-16.6,0-29.8,7.2-39.4,21.6-9.8,14.4-14.6,33.2-14.6,56.6,0,21.8,4.4,38.8,13.6,51.2,9.2,12.6,22.6,19,40.2,19,14.2,0,26.2-4.8,35.8-14,9.6-9.2,14.6-21,14.6-35.4s-4.2-25.6-12.6-34.6c-8.4-9-19.6-13.4-33.6-13.4-7.2,0-13.6,1.2-19.2,4-6,2.8-11,7-15,13h-1v-1.8c0-13.2,2.6-24.2,8.2-33,5.6-9.4,13.2-14,22.8-14,13.6,0,22,6.6,24.8,19.8h22.8c-3.6-26-19.4-39-47.4-39h0ZM318.18,564.4c8.6,0,15.4,2.6,20.6,8,4.8,5.2,7.4,12.2,7.4,21s-2.6,16-7.8,21.6c-5.2,5.6-11.8,8.4-20.2,8.4s-14.8-2.6-20-7.8c-5.2-5.2-7.8-12.4-7.8-21.4s2.4-16.6,7.4-21.8c4.8-5.4,11.6-8,20.4-8h0ZM432.36,494.4c-15.4,0-27.6,4-36.6,12.2-8.2,7.2-12.2,16.2-12.2,27,0,7.2,1.6,13.4,4.8,18.4,3.4,5.2,8.6,9.4,15.8,12.2v.4c-6.8,1.8-12.4,5.8-17.2,12-5.6,6.8-8.2,14.6-8.2,23.4,0,12.8,4.6,23,14,31,9.2,7.8,22.4,11.8,39.6,11.8s30.2-4,39.6-11.8c9.2-8,14-18.2,14-31,0-8.8-2.8-16.6-8.2-23.4-4.8-6.2-10.6-10.2-17.2-12v-.4c7-2.8,12.2-7,15.8-12.2,3.2-5,4.8-11.2,4.8-18.4,0-10.8-4.2-19.8-12.2-27-9.2-8.2-21.4-12.2-36.6-12.2h0ZM432.36,513c8.4,0,15,2.2,20.2,6.8,4.4,4,6.6,8.8,6.6,14.6,0,6.6-1.8,11.8-5.4,15.6-4.4,4.6-11.6,7-21.4,7s-17-2.4-21.4-7c-3.6-3.8-5.4-9-5.4-15.6,0-5.8,2.2-10.6,6.6-14.6,5-4.6,11.8-6.8,20.2-6.8h0ZM432.36,574.4c10,0,17.6,2.4,23,7.4,4.8,4.4,7.4,10.6,7.4,18.2,0,7.2-2.6,12.8-7.6,17.2-5.6,4.4-13.2,6.8-22.8,6.8s-17.2-2.2-22.4-6.6c-5.4-4.4-8-10.2-8-17.4,0-7.6,2.4-13.8,7.6-18.4,5.2-4.8,12.8-7.2,22.8-7.2h0ZM547.52,494.4c-15.4,0-27.6,4-36.6,12.2-8.2,7.2-12.2,16.2-12.2,27,0,7.2,1.6,13.4,4.8,18.4,3.4,5.2,8.6,9.4,15.8,12.2v.4c-6.8,1.8-12.4,5.8-17.2,12-5.6,6.8-8.2,14.6-8.2,23.4,0,12.8,4.6,23,14,31,9.2,7.8,22.4,11.8,39.6,11.8s30.2-4,39.6-11.8c9.2-8,14-18.2,14-31,0-8.8-2.8-16.6-8.2-23.4-4.8-6.2-10.6-10.2-17.2-12v-.4c7-2.8,12.2-7,15.8-12.2,3.2-5,4.8-11.2,4.8-18.4,0-10.8-4.2-19.8-12.2-27-9.2-8.2-21.4-12.2-36.6-12.2h0ZM547.52,513c8.4,0,15,2.2,20.2,6.8,4.4,4,6.6,8.8,6.6,14.6,0,6.6-1.8,11.8-5.4,15.6-4.4,4.6-11.6,7-21.4,7s-17-2.4-21.4-7c-3.6-3.8-5.4-9-5.4-15.6,0-5.8,2.2-10.6,6.6-14.6,5-4.6,11.8-6.8,20.2-6.8h0ZM547.52,574.4c10,0,17.6,2.4,23,7.4,4.8,4.4,7.4,10.6,7.4,18.2,0,7.2-2.6,12.8-7.6,17.2-5.6,4.4-13.2,6.8-22.8,6.8s-17.2-2.2-22.4-6.6c-5.4-4.4-8-10.2-8-17.4,0-7.6,2.4-13.8,7.6-18.4,5.2-4.8,12.8-7.2,22.8-7.2h0ZM547.52,574.4"/>
</svg>