<?xml version="1.0" encoding="UTF-8"?>
<svg id="_图层_1" data-name="图层_1" xmlns="http://www.w3.org/2000/svg" version="1.1" viewBox="0 0 800 800">
  <!-- Generator: Adobe Illustrator 29.1.0, SVG Export Plug-In . SVG Version: 2.1.0 Build 142)  -->
  <path d="M795.22,383.46l-112.8-153.87c-4.67-6.37-12.09-10.14-19.99-10.13h-134.84v-16.22c0-37.61-30-68.18-66.87-68.18h-145.42c-2.41,0-7.39-.11-10.38.4-28.25-47.45-79.78-79.47-138.95-80.2h-.03c-59.05-.72-113.92,30.37-143.66,81.39-29.73,51.02-29.72,114.09.01,165.11,8.12,13.93,18.12,26.35,29.56,37.07-.02.14-.04.28-.04.43v245.18c0,37.61,30,68.18,66.86,68.18h13c8.1,52.1,51.95,92.13,105.09,92.13s96.94-40.03,105.04-92.13h160.98c.89,0,1.61-.42,2.5-.52v.52h29.08c8.1,52.1,51.95,92.13,105.09,92.13s97.38-40.46,105.14-92.95c29.51-3.82,52.59-29.7,54.9-62.13.07-.84.5-1.56.5-2.43v-189.15c0-5.27-1.67-10.4-4.78-14.64ZM103.77,273.96l54.48-53.34v-79.3c0-7.08,3.78-13.62,9.91-17.16,6.13-3.54,13.69-3.54,19.82,0,6.13,3.54,9.91,10.08,9.91,17.16v87.6h-.03c0,5.33-2.14,10.44-5.94,14.17l-60.42,59.18c-3.75,3.69-8.81,5.74-14.07,5.68-5.26-.06-10.28-2.21-13.95-5.98-3.68-3.75-5.72-8.82-5.66-14.07.06-5.26,2.2-10.28,5.96-13.95ZM236.78,695.21c-31.56,0-57.25-26.78-57.25-59.71s25.67-59.7,57.25-59.7,57.2,26.78,57.2,59.7-25.64,59.71-57.2,59.71ZM478.05,603.1h-139.87c-13.6-44.35-53.63-76.85-101.4-76.85s-87.85,32.5-101.45,76.85h-16.64c-9.56,0-17.32-8.35-17.32-18.63v-213.75c20.15,8.33,42.07,12.69,64.61,12.42,89.75-1.1,161.93-74.18,161.93-163.94,0-11.87-1.27-23.44-3.67-34.59h136.49c9.56,0,17.32,8.35,17.32,18.63v399.87ZM639.47,695.21c-31.56,0-57.25-26.78-57.25-59.71s25.67-59.7,57.25-59.7,57.23,26.78,57.23,59.7-25.69,59.71-57.23,59.71ZM750.45,584.44c0,8.28-4.36,15.39-9.83,17.62-13.92-43.85-53.73-75.83-101.12-75.83s-87.85,32.5-101.45,76.85h-10.45v-334.09h122.28l9.39,12.83h-24.75c-34.58,0-62.73,30.54-62.73,68.12v56.56c0,37.58,28.14,68.13,62.73,68.13h115.94v109.82ZM750.45,425.08h-115.94c-7.01,0-13.18-8.7-13.18-18.58v-56.56c0-9.89,6.17-18.58,13.18-18.58h61.09l54.85,74.84v18.88Z"/>
</svg>