<?xml version="1.0" encoding="UTF-8"?>
<svg id="_图层_1" data-name="图层_1" xmlns="http://www.w3.org/2000/svg" version="1.1" viewBox="0 0 800 800">
  <!-- Generator: Adobe Illustrator 29.1.0, SVG Export Plug-In . SVG Version: 2.1.0 Build 142)  -->
  <path d="M400,0C179.09,0,0,179.09,0,400s179.09,400,400,400,400-179.09,400-400S620.91,0,400,0ZM478.38,504.75c-37.98,42.89-78.13,84.38-121.22,121.98-40.98,35.76-90.76,39.96-140.15,16.96-50.48-23.45-74.38-66.09-78.01-115.8.26-37.86,10.14-67.56,31.87-92.35,14.41-16.44,29.96-31.99,46.02-46.84,15.61-14.41,37.54-14.02,51.18-.7,14.41,14.02,14.41,36.58-.64,52.77-11.85,12.69-24.92,24.28-36.58,37.09-24.09,26.45-23.96,63.73-.38,87.95,22.94,23.64,59.4,25.11,85.66.51,34.1-32,66.66-65.71,99.3-99.3,18.1-18.61,19.82-41.11,13-65.39-8.09-28.81-.77-46.59,20.97-53.54,22.94-7.4,40.53,3.76,49.77,32.88,14.22,44.68,10.65,88.34-20.77,123.77ZM633.88,357.34c-14.85,18.93-32.18,36.07-49.58,52.71-16.57,15.87-37.03,14.85-52.39-.51-14.72-14.79-14.34-35.25,1.79-52.51,11.34-12.17,23.83-23.2,34.92-35.56,24.85-27.73,24.15-65.78-.89-89.48-24.16-22.88-61.63-21.42-87.57,4.08-30.15,29.7-59.59,60.03-89.61,89.86-21.29,21.22-27.66,45.57-18.42,74.51,7.52,23.52-1.02,43.91-19.82,50.67-20.39,7.33-39.64-3.32-49.2-27.6-2.48-6.24-4.84-12.75-5.99-19.37-1.66-9.63-2.17-19.51-2.68-24.6.26-40.21,11.6-72.08,36.07-97.32,36.33-37.34,72.97-74.57,112.04-108.98,50.73-44.68,128.04-40.41,177.3,6.82,48.5,46.46,55.32,124.66,14.02,177.3Z"/>
</svg>