<?xml version="1.0" encoding="UTF-8"?>
<svg id="_图层_1" data-name="图层_1" xmlns="http://www.w3.org/2000/svg" version="1.1" viewBox="0 0 800 800">
  <!-- Generator: Adobe Illustrator 29.1.0, SVG Export Plug-In . SVG Version: 2.1.0 Build 142)  -->
  <path d="M732.38,331.17c-65.63,0-129.45-21.33-181.95-60.78v275.23c0,140.55-108.28,254.38-241.87,254.38s-241.88-113.83-241.88-254.38,108.28-254.38,241.88-254.38c13.36,0,26.33,1.17,38.99,3.36v145.78c-12.11-4.77-25-7.19-37.97-7.19-59.61,0-107.97,50.78-107.97,113.51s48.36,113.51,107.97,113.51,107.89-50.86,107.89-113.51V0h134.92c0,105.08,81.02,190.24,180.94,190.24v140.86l-.94.08"/>
</svg>