<?xml version="1.0" encoding="UTF-8"?>
<svg id="_图层_1" data-name="图层_1" xmlns="http://www.w3.org/2000/svg" version="1.1" viewBox="0 0 800 800">
  <!-- Generator: Adobe Illustrator 29.1.0, SVG Export Plug-In . SVG Version: 2.1.0 Build 142)  -->
  <path d="M296.13,438.77v29.33h41.79v-41.79h-41.79v12.45ZM460.88,467.71h41.79v-41.79h-41.79v41.79ZM460.88,467.71"/>
  <path d="M770.27,431.95c1.21-20.49,1.21-42.19-.4-63.89l29.33-41.79c-3.62-20.89-9.65-41.79-16.88-62.28l-46.21-21.7c-8.84-19.69-20.09-37.77-32.54-55.85l4.02-50.63c-6.83-8.04-14.06-16.47-22.1-23.71-8.04-8.04-15.67-14.86-24.11-21.7l-51.03,4.02c-18.08-12.46-36.97-23.31-56.25-32.15l-21.7-45.81c-20.49-7.23-41.79-12.45-63.08-16.47l-42.19,28.93c-6.83-.4-46.21-.4-53.84,0L330.29.4c-20.89,3.62-41.79,9.24-63.08,16.07l-21.7,45.81c-19.69,8.84-38.57,20.09-56.25,32.15l-51.03-4.02c-8.41,6.81-16.46,14.05-24.11,21.7-8.04,7.23-14.87,15.67-22.1,23.71l4.02,50.63c-12.46,18.08-23.71,36.56-32.54,55.85l-46.61,21.7c-7.23,20.49-12.46,40.99-16.88,62.28l29.33,41.39c-1.61,21.7-1.61,43.39,0,64.29L.4,473.73c3.62,20.9,9.64,41.79,16.88,62.28l46.21,21.7c8.84,19.69,20.09,37.77,32.54,55.85l-4.02,50.63c6.83,8.04,14.06,16.47,22.1,23.7,8.04,8.04,15.67,14.87,24.11,21.7l51.03-4.02c18.08,12.46,36.97,23.31,56.25,32.15l21.7,45.8c20.49,7.23,41.79,12.46,63.08,16.47l42.19-28.93c6.83.4,46.21.4,53.84,0l42.19,28.93c21.7-3.61,42.19-9.64,63.08-16.47l21.7-45.8c19.69-8.84,38.57-20.09,56.25-32.15l51.03,4.02c8.41-6.81,16.46-14.05,24.11-21.7,8.04-7.23,14.87-15.67,22.1-23.7l-4.02-50.63c12.46-18.08,23.71-36.56,32.54-55.85l46.21-21.7c7.23-20.49,12.46-40.98,16.88-62.28l-28.13-41.79ZM399.4,683.48c-156.7,0-282.87-126.57-282.87-282.88S243.5,117.73,399.4,117.73s282.87,126.57,282.87,282.87-126.17,282.88-282.87,282.88h0ZM399.4,683.48"/>
  <rect x="378.5" y="426.32" width="41.79" height="41.79"/>
  <path d="M399.4,139.83c-143.85,0-260.37,116.53-260.37,260.37s116.52,260.37,260.37,260.37,260.37-116.53,260.37-260.37-116.53-260.37-260.37-260.37h0ZM546.86,527.17H251.13v-201.3l77.55,44.6v-44.6l75.94,45.4v-45.4l75.94,45v-97.24h65.89v253.54h.4ZM546.86,527.17"/>
</svg>