<?xml version="1.0" encoding="UTF-8"?>
<svg id="_图层_1" data-name="图层_1" xmlns="http://www.w3.org/2000/svg" version="1.1" viewBox="0 0 800 800">
  <!-- Generator: Adobe Illustrator 29.1.0, SVG Export Plug-In . SVG Version: 2.1.0 Build 142)  -->
  <path d="M400,.07C179.11.07,0,179.15,0,400.03s179.11,399.96,400.03,399.96,399.97-179.08,399.97-399.96S620.92,0,400,0v.06ZM618.58,338.59l-317.39,317.35c-6.2,6.1-15.79,7.12-23.14,2.45-7.34-4.67-10.5-13.78-7.62-21.99l65.58-180.28h-141.41c-7.56-.01-14.36-4.57-17.25-11.56-2.89-6.99-1.28-15.02,4.06-20.36L461.44,144.15c5.88-5.82,14.9-7.08,22.15-3.1,7.26,3.99,11.03,12.27,9.27,20.36l-32.26,145.35h144.72c7.55-.02,14.37,4.51,17.27,11.48,2.9,6.97,1.3,15.01-4.05,20.34h.03ZM618.58,338.59"/>
</svg>