<?xml version="1.0" encoding="UTF-8"?>
<svg id="_图层_1" data-name="图层_1" xmlns="http://www.w3.org/2000/svg" version="1.1" viewBox="0 0 800 800">
  <!-- Generator: Adobe Illustrator 29.1.0, SVG Export Plug-In . SVG Version: 2.1.0 Build 142)  -->
  <path d="M611.12,61.95c-39.41,0-73.26,16.93-101.41,39.46C475.91,39.41,413.91,0,340.69,0,239.29,0,154.76,78.87,154.76,185.89s84.53,185.94,185.94,185.94c56.34,0,107.02-28.2,140.82-67.61,28.19,39.41,73.26,67.61,129.6,67.61,40.4.16,79.18-15.82,107.74-44.39,28.56-28.57,44.53-67.36,44.35-107.75,0-90.14-67.61-157.75-152.09-157.75h0ZM340.69,298.57c-62.15-.19-112.48-50.53-112.67-112.67.19-62.15,50.53-112.48,112.67-112.67,62.15.19,112.49,50.53,112.68,112.67-.19,62.15-50.53,112.49-112.68,112.67h0ZM611.12,298.57c-45.07,0-84.53-39.41-84.53-84.48s33.85-84.53,84.53-84.53c45.07,0,84.53,39.46,84.53,84.53-5.66,45.07-39.46,84.48-84.53,84.48h0ZM616.78,399.97h-191.6c-73.21,0-129.55,45.07-146.48,112.68l-107.02-61.95c-62-33.81-140.87,11.27-140.87,78.87v135.21c0,73.21,78.87,118.28,140.87,78.87l101.41-56.34c16.87,67.6,78.87,112.67,146.48,112.67h197.21c40.39.16,79.18-15.82,107.74-44.38,28.56-28.57,44.52-67.36,44.35-107.75v-90.14c5.61-90.14-62-157.75-152.09-157.75h0ZM250.55,619.72l-118.34,67.61c-11.27,5.61-28.14,0-28.14-16.93v-135.21c0-16.88,16.88-28.14,28.14-16.88l118.34,67.61c5.61,5.61,11.27,11.27,11.27,16.87s-5.66,11.27-11.27,16.93h0ZM701.26,647.86c0,45.07-39.46,84.53-84.53,84.53h-191.5c-45.07,0-84.48-39.46-84.48-84.53v-90.14c0-45.07,39.41-84.48,84.48-84.48h197.16c45.07,0,84.53,39.41,84.53,84.48v90.14h-5.66ZM701.26,647.86"/>
</svg>