<svg xmlns="http://www.w3.org/2000/svg" width="180" height="60" viewBox="0 0 180 60">
  <g fill="#FFFFFF">
    <path d="M20.4,10.5c6.9,0,12.6,5.6,12.6,12.6c0,6.9-5.6,12.6-12.6,12.6c-6.9,0-12.6-5.6-12.6-12.6C7.8,16.1,13.5,10.5,20.4,10.5z
    M20.4,31.1c4.4,0,8-3.6,8-8c0-4.4-3.6-8-8-8c-4.4,0-8,3.6-8,8C12.4,27.5,16,31.1,20.4,31.1z"/>
    <path d="M35.5,11.2h4.6c0.5,0,0.9,0.2,1.2,0.6l7.3,10.9c0.1,0.1,0.1,0.1,0.2,0.1c0,0,0.1,0,0.1-0.1V11.8c0-0.3,0.3-0.6,0.6-0.6h3.9
      c0.3,0,0.6,0.3,0.6,0.6v22.6c0,0.3-0.3,0.6-0.6,0.6h-4.6c-0.5,0-0.9-0.2-1.2-0.6l-7.3-10.9c-0.1-0.1-0.1-0.1-0.2-0.1
      c0,0-0.1,0-0.1,0.1v10.9c0,0.3-0.3,0.6-0.6,0.6h-3.9c-0.3,0-0.6-0.3-0.6-0.6V11.8C34.9,11.5,35.2,11.2,35.5,11.2z"/>
    <path d="M62.9,11.2h4.6c0.5,0,0.9,0.2,1.2,0.6l7.3,10.9c0.1,0.1,0.1,0.1,0.2,0.1c0,0,0.1,0,0.1-0.1V11.8c0-0.3,0.3-0.6,0.6-0.6h3.9
      c0.3,0,0.6,0.3,0.6,0.6v22.6c0,0.3-0.3,0.6-0.6,0.6h-4.6c-0.5,0-0.9-0.2-1.2-0.6l-7.3-10.9c-0.1-0.1-0.1-0.1-0.2-0.1
      c0,0-0.1,0-0.1,0.1v10.9c0,0.3-0.3,0.6-0.6,0.6h-3.9c-0.3,0-0.6-0.3-0.6-0.6V11.8C62.3,11.5,62.6,11.2,62.9,11.2z"/>
    <path d="M90.3,11.2h3.9c0.3,0,0.6,0.3,0.6,0.6v18h8.7c0.3,0,0.6,0.3,0.6,0.6v3.9c0,0.3-0.3,0.6-0.6,0.6H90.3
      c-0.3,0-0.6-0.3-0.6-0.6V11.8C89.7,11.5,90,11.2,90.3,11.2z"/>
    <path d="M112.5,11.2h3.9c0.3,0,0.6,0.3,0.6,0.6v22.6c0,0.3-0.3,0.6-0.6,0.6h-3.9c-0.3,0-0.6-0.3-0.6-0.6V11.8
      C111.9,11.5,112.2,11.2,112.5,11.2z"/>
  </g>
  <path fill="#FFFFFF" d="M121,41.5h5.9v1.1h-4.6v3.3h4.2v1.1h-4.2v3.6h4.6V52h-5.9V41.5z"/>
  <path fill="#FFFFFF" d="M128.5,41.5h1.5l3.5,9.1l3.5-9.1h1.5l-4.2,10.5h-1.6L128.5,41.5z"/>
  <path fill="#FFFFFF" d="M142.5,51c1.7,0,3-1.3,3-3.1v-6.4h1.3v6.4c0,2.4-1.9,4.3-4.3,4.3c-2.4,0-4.3-1.9-4.3-4.3v-6.4h1.3v6.4
    C139.5,49.7,140.8,51,142.5,51z"/>
</svg> 