<?xml version="1.0" encoding="UTF-8"?>
<svg id="_图层_1" data-name="图层_1" xmlns="http://www.w3.org/2000/svg" version="1.1" viewBox="0 0 800 800">
  <!-- Generator: Adobe Illustrator 29.1.0, SVG Export Plug-In . SVG Version: 2.1.0 Build 142)  -->
  <path d="M160,63.48c8.04-7.03,16.72-13.28,25.94-18.83v268.2c-40-28.2-77.58-58.83-117.58-87.11C44.85,209.26,23.67,192.85.16,176.36c54.06-37.58,105.94-75.31,160-112.89h-.16ZM105.94,126.99c0,7.11-2.42,11.79-2.42,18.83-2.42,7.11,7.11,16.48,0,23.51-4.69,11.8-9.38,21.17-14.06,30.62-2.58,3.52-2.58,8.28,0,11.8,2.42,4.69,9.37,2.42,14.06,2.42,4.69,2.42,7.11,4.68,11.79,4.68s7.11-2.42,11.8-2.42,9.38,2.42,11.79,0c2.42,0,4.69-2.42,9.38-4.69h11.72c4.69-2.42,4.69-9.38,2.42-14.06-7.58-7.58-13.91-16.33-18.83-25.94-7.11-9.38,4.69-21.17,0-30.62-2.42-2.42-2.42-9.38-2.42-14.07h-4.68c-1.95,6.1-6.17,11.17-11.8,14.07-6.09-1.95-11.17-6.17-14.06-11.8,0-2.42-2.42-2.42-4.69-2.42v.08ZM200,44.72c23.51,16.49,47.11,32.89,72.89,49.38l120,84.69c-4.37,2.5-8.36,5.7-11.8,9.38-58.83,40-117.58,82.42-178.83,122.42-2.27-87.11-2.27-176.48-2.27-265.86h0ZM218.83,145.9c2.58,5.78,5.78,11.33,9.38,16.48,2.42,0,4.69-2.42,7.11-2.42v56.49c21.09,2.34,42.42,2.34,63.51,0,1.17-18.83,1.17-37.66,0-56.49,2.42,0,4.69,2.42,7.11,2.42,5.23-5.31,9.3-11.72,11.79-18.83-11.79-2.42-23.51-9.38-35.31-11.8-2.5,7.03-9.06,11.72-16.48,11.8-7.11,0-11.8-7.11-14.06-11.8-11.57,3.28-22.58,7.97-32.89,14.07l-.16.08ZM407.03,181.21c63.59-47.11,129.53-91.8,192.97-136.49v265.94c-63.51-42.5-129.37-87.18-192.89-129.45h-.08ZM510.47,127.07c-3.51,11.49-3.51,23.83,0,35.31,4.69,11.8,16.49,18.83,23.52,28.21,4.69,4.68,2.42,11.8,2.42,16.48-6.72,2.19-13.05,5.31-18.83,9.38h42.42c-7.11-2.42-11.8-7.11-18.83-9.38,0-4.69-2.42-14.06,2.42-16.48,10.23-7.11,18.36-16.88,23.51-28.21,4.69-11.8,0-23.51-2.42-35.31h-54.22ZM611.8,44.72l49.37,35.31c40,28.21,77.58,54.07,117.58,82.42l21.17,14.06c-63.52,44.69-124.69,89.38-188.21,136.49V44.72h.08ZM647.11,117.61c2.03,8.67,8.2,15.71,16.48,18.83h14.06c-2.42-4.69-2.42-11.79-7.11-14.06-7.03-7.19-16.48-4.77-23.44-4.77h0ZM684.69,124.73c-2.89,3.59-5.23,7.58-7.11,11.79,4.69,0,11.8,0,14.06-2.42,2.89-3.59,5.31-7.58,7.11-11.8-4.76-.39-9.61.47-14.06,2.42h0ZM670.62,141.21c-21.8,3.52-36.64,24.06-33.12,45.86.08.39.16.86.23,1.25,3.2,20.39,21.72,34.76,42.27,32.89,10.78-1.25,20.7-6.25,28.2-14.07,9.3-12.03,11.96-27.96,7.11-42.42-8.59-16.41-26.41-25.78-44.69-23.52h0ZM618.83,324.73c61.17-44.69,120-87.11,181.17-131.8v265.94c-61.17-44.77-120-87.19-181.17-131.87,0,0-2.42-2.42,0-2.42v.16ZM715.31,298.79c-15.47,1.95-28.75,11.8-35.31,25.94-2.42,9.37,7.11,14.06,11.79,21.17,7.35,6.25,16.33,10.31,25.94,11.8,6.72,5.24,13.75,9.92,21.17,14.06,1.95-6.1,2.73-12.42,2.42-18.83,8.2-4.92,16.09-10.47,23.51-16.48,7.11,2.42,11.8,9.37,16.48,11.79,2.42,0,7.11,0,7.11-2.42-.47-5.78-2.03-11.33-4.69-16.48,2.97-5,4.53-10.7,4.69-16.48,0-4.69-4.69-7.11-9.37-4.69-5,2.66-9.14,6.8-11.8,11.8-9.38-4.69-16.48-11.8-25.94-16.49v-18.83c-11.8,0-18.83,9.37-25.94,14.06l-.08.08ZM0,195.27c61.17,44.69,120,87.11,181.17,131.8,2.42,0,0,2.42,0,2.42C120,371.76,61.17,416.52,0,458.79V195.27ZM54.06,287.07c-1.8,4.22-4.22,8.21-7.11,11.8-2.26,2.89-5.7,4.61-9.37,4.69-6.33,5.15-9.85,12.97-9.38,21.09-2.34,7.66-2.34,15.86,0,23.52.71,7.11,6.95,12.34,14.06,11.79h54.06c4.38-.08,8.59-1.72,11.79-4.69,4.69-4.68,2.42-14.06,2.42-21.17-.94-9.69-3.36-19.22-7.11-28.2-4.84-2.89-9.61-6.02-14.06-9.37-2.19-8.05-8.44-14.38-16.48-16.49-6.87.16-13.44,2.66-18.83,7.03h0ZM327.03,270.58c9.38-11.79,11.8-25.94,18.83-37.58,6.49,11.33,11.95,23.12,16.48,35.31,4.69,0,9.38,2.42,16.49,2.42v13.98c7.11-2.42,14.06-2.42,23.51-4.69-4.69-16.48-11.79-32.89-16.48-47.11,16.48,7.11,30.62,11.79,44.69,18.83-4.69,9.38-7.11,21.18-11.79,32.89,7.11-2.42,14.06-2.42,18.83-4.69,2.42,0,2.42-2.42,4.69-4.69,6.49-13.75,12.03-27.89,16.49-42.42,11.79,7.11,21.17,16.49,32.89,23.52l-7.11,7.11c-7.11,7.11-16.48,11.8-23.52,18.83h30.63c2.42,7.11,4.68,16.48,7.11,23.52h-18.67c-2.42,9.37-4.69,18.83-7.11,30.63,8.91,1.25,17.58,3.67,25.94,7.11,4.53,7.19,7.74,15.16,9.38,23.52-9.38,2.42-21.17,2.42-30.62,4.69l-7.11,49.37c-4.92,4.69-10.47,8.67-16.48,11.8-4.69-21.17-7.11-42.42-11.8-63.52-7.19.39-14.3-.47-21.17-2.42-4.69,16.49-7.11,35.31-11.79,51.8-4.69,7.11-11.8,7.11-18.83,11.79.39-20.39-.39-40.86-2.42-61.17-4.84.31-9.69-.47-14.06-2.42-2.42-7.11-4.69-11.79-7.11-18.83-9.38,9.37-7.11,23.51-9.38,35.31-2.42,16.48-4.68,32.89-7.11,47.11-13.13-8.67-25.63-18.05-37.58-28.2,7.11-2.42,16.48-4.69,23.51-7.11-2.42-11.79-2.42-23.51-4.68-35.31-4.69,2.42-9.38,7.11-14.07,9.38-4.69-11.8-7.11-25.94-11.79-37.58,8.83-.23,17.58-1.8,25.94-4.69,0-9.37-2.42-16.48-2.42-25.94-2.42,0-4.69-2.42-7.11-2.42-5.24-7.5-9.92-15.39-14.06-23.52,6.56-.15,12.97-1.8,18.83-4.68l.08.08ZM357.58,329.41h23.51l-7.11,14.06,21.17-7.11c-2.42-7.11-2.42-16.48-4.69-23.51-4.69-2.42-9.38-2.42-14.06-4.69-4.69-4.69-4.69-9.38-7.11-14.06-9.38,7.11-9.38,21.17-11.8,35.31h.08ZM425.78,310.58c-2.42,9.38-2.42,18.83-4.69,28.2,9.38-2.42,16.48-2.42,25.94-4.69,0-9.37-2.42-18.83-2.42-25.94-6.41-.31-12.74.47-18.83,2.42h0ZM65.78,287.07c7.11-2.42,14.07,4.69,16.48,11.8h-28.2c4.69-4.69,7.11-9.38,11.8-11.8h-.08ZM416.48,475.27l183.51-134.06v268.2l-56.48-42.42c-42.42-30.62-84.69-63.51-127.11-91.8l.08.08ZM527.11,421.21c-2.42,4.68-2.42,11.79-4.69,16.48,4.69-2.42,9.37-2.42,14.06-4.69,8.13-1.87,16.72-.16,23.52,4.69-2.42-4.69-2.42-11.8-4.69-16.48h-28.2ZM531.8,442.38c-9.53,2.81-17.27,9.69-21.17,18.83-3.75,13.59,2.03,28.05,14.06,35.31,11.48,6.72,26.02,4.77,35.31-4.68,11.8-9.92,13.36-27.5,3.44-39.3-2.82-3.44-6.49-6.09-10.55-7.81-7.11-4.69-14.06-2.42-21.17-2.42l.08.08ZM522.42,503.56c2.42,4.68,2.42,11.79,4.69,16.48h25.94c1.87-5.39,3.44-10.94,4.69-16.48-9.45,7.11-23.52,4.76-35.31,0h0ZM611.8,338.87c63.52,44.61,124.69,87.03,188.2,131.72l-98.83,70.63c-28.2,21.17-58.83,42.42-87.11,63.52-2.35-87.11-2.35-176.56-2.35-265.94l.08.08ZM672.97,414.18v18.83h7.03c2.42-4.69,0-7.11,0-11.79,4.69-7.11-4.69-4.69-7.11-7.11l.08.08ZM647.11,416.6v16.49c2.42,0,4.69,2.42,7.11,2.42-2.42-7.11,4.68-18.83-7.11-18.83v-.08ZM701.17,416.6c-2.42,4.69,0,9.38,0,14.06,0,2.42,7.11,2.42,7.11,0,2.42-4.69,0-9.38,0-14.06h-7.11ZM640,442.3v68.2c0,2.42,4.69,4.69,7.11,4.69h54.06c4.69,0,9.38,2.42,11.79-2.42,1.95-4.45,2.74-9.3,2.42-14.06,4.69-2.42,7.11-2.42,11.8-4.69,7.42-5.39,9.45-15.62,4.69-23.52-4.69-6.01-11.33-10.23-18.83-11.79v-16.41h-73.05ZM0,470.59c61.17-42.42,122.42-87.11,185.94-129.38v265.86c-37.57-25.94-72.89-54.07-110.62-82.42-25.94-18.75-51.8-35.23-75.31-54.06h0ZM155.31,425.9c-4.69,7.11-11.79,11.8-14.06,18.83-7.11,11.8-9.38,25.94-18.83,37.58-14.06,4.69-32.89,4.69-44.68,18.83,13.75,9.53,31.17,12.11,47.11,7.11,9.38-2.42,11.8-11.79,14.06-18.83,1.02-8.99,5.16-17.34,11.8-23.52,2.42-2.42,4.69,2.42,4.69,4.69v40h4.61c0-14.06-2.42-30.62,4.69-44.69,3.98-7.11,5.62-15.39,4.69-23.51-2.66-6.95-7.66-12.74-14.06-16.49h0ZM200,341.21c37.58,25.94,72.89,51.8,108.2,80,23.51,18.83,49.37,35.31,72.89,54.06-61.09,44.69-122.26,89.45-181.09,134.14v-268.2ZM251.8,428.32c-4.69,2.42-4.69,7.11-9.38,9.38-6.32-.39-12.73.47-18.83,2.42-2.42,0-4.69,4.69-4.69,7.11v54.07c0,4.68,7.11,4.68,9.38,4.68h77.58c4.69,0,4.69-4.68,4.69-9.37v-54.3c-6.41-3.75-13.83-5.39-21.17-4.69-2.81-4.37-6.95-7.66-11.8-9.37l-25.78.08ZM207.11,618.79c63.52-44.69,124.69-89.38,188.21-131.8v141.17c2.42,42.42,0,84.69,0,124.69-44.69-30.62-87.11-63.51-131.8-94.06-18.83-14.06-40-28.2-56.48-40h.08ZM324.69,566.99h9.37c-2.42-2.42-2.42-4.69-4.68-4.69l-4.69,4.69ZM291.8,588.16c-6.1,8.67-10.86,18.13-14.07,28.21,2.42,0,7.11-2.42,9.38-2.42,7.11,0,14.06,2.42,18.83,0,5.23-2.35,11.25-2.35,16.48,0,.39,12.66-.39,25.31-2.42,37.81,0,4.69-7.11,4.69-9.38,4.69l-7.11-14.06c-2.42,2.42-4.69,2.42-4.69,4.69-1.01,8.28,3.91,16.09,11.79,18.83,8.83,2.74,18.28-2.27,21.02-11.09l.23-.71v-40c7.11-1.56,14.61-.71,21.17,2.42,8.44-2.35,17.42-2.35,25.94,0-1.48-9.53-5.55-18.52-11.79-25.94-4.45-5.23-10.15-9.3-16.48-11.79-18.91-13.67-45.23-9.45-58.91,9.37h0ZM407.11,487.07c63.52,44.69,124.69,87.11,188.21,131.8-61.17,44.69-124.69,91.8-185.94,136.49-2.34-91.8-2.34-181.18-2.34-268.13l.08-.16ZM468.28,562.38c-2.42,2.42-2.42,7.11-7.11,7.11-7.11,4.68-14.06,11.8-21.17,16.48,2.73,1.87,6.1,2.74,9.38,2.42h51.8c-4.69-7.11-11.79-9.38-16.48-14.07-7.11-4.68-11.8-9.37-16.48-11.79l.08-.16ZM440,597.61v49.38c0,2.42,0,7.11,4.69,7.11h54.06c1.95-6.87,2.74-14.06,2.42-21.17v-35.31c0-2.42-4.69-2.42-7.11-2.42-18.05-.47-36.09.31-54.07,2.42h0ZM440,597.61"/>
</svg>