<?xml version="1.0" encoding="UTF-8"?>
<svg id="_图层_1" data-name="图层_1" xmlns="http://www.w3.org/2000/svg" version="1.1" viewBox="0 0 800 800">
  <!-- Generator: Adobe Illustrator 29.1.0, SVG Export Plug-In . SVG Version: 2.1.0 Build 142)  -->
  <path d="M741.96,645.09c-24.93-43.1-50.42-85.9-74.42-129.51-3.67-6.67-3.82-18.88-.13-25.48,79.65-142.83,51.19-308.72-71.87-414.31C428.2-67.8,159.68,1.65,83.73,208.26c-41.26,112.25-23.73,216.34,44.65,314.15l-82.48,143.83c37.18,7.35,70.87,14.96,104.91,20.41,23.99,3.83,43.48,11.76,59.35,31.99,21.59,27.51,46.65,52.28,71.87,80.05,27.62-47.1,53.39-91.36,79.47-135.45,14.28-24.16,62.33-23.9,76.58.21,26.37,44.57,52.66,89.17,80.64,136.55,27.2-30.23,51.4-59.06,77.89-85.6,10.35-10.39,25.01-18.98,39.18-22.58,37.87-9.62,76.54-16.09,118.3-24.5-5.03-9.22-8.43-15.81-12.14-22.22ZM274.9,721.72c-36.73-54.8-89.25-79.74-153.87-89.56l41.63-72.68c45.78,41.05,97.03,69.85,158.37,83.55l-46.14,78.7ZM378.29,592.14c-142.72-1.55-261.11-125.35-259.52-271.41,1.62-149.49,124.17-270.24,271.16-267.16,150.44,3.15,267.6,122.78,266.37,271.99-1.25,151.94-122.56,268.26-278,266.57ZM527.31,724.14l-50.41-86.78c59.87-17.39,109.23-49.44,153.31-94.49,17.48,30.28,33.2,57.5,51.36,88.94-62.68,11.53-118.98,30.58-154.26,92.34Z"/>
  <path d="M516.5,307.78c39.68-60.1,4.12-140.48-66.99-147.86-60.31-6.25-121.78-1.29-183.13-1.29v313.75h59.98v-121.36c36.76-8.68,62.96-2.14,82.16,31.28,16.44,28.62,38.86,53.84,59.38,80,4.07,5.19,11.26,10.59,17.37,11.04,19.18,1.43,38.52.52,62.27.52l-93.09-118.78c22.11-16.28,48.85-27.33,62.04-47.3ZM414.55,306.41c-24.86,1.02-49.77.61-74.66.71-3.71.01-7.42-.69-12.93-1.24v-108.52c31.13,0,61.28-1.74,91.16.46,34.68,2.57,48.58,23.18,47.1,63.79-1.06,29.3-16.37,43.39-50.68,44.8Z"/>
</svg>