<?xml version="1.0" encoding="UTF-8"?>
<svg id="_图层_1" data-name="图层_1" xmlns="http://www.w3.org/2000/svg" version="1.1" viewBox="0 0 800 800">
  <!-- Generator: Adobe Illustrator 29.1.0, SVG Export Plug-In . SVG Version: 2.1.0 Build 142)  -->
  <path d="M688.34,100h-20c-173.34,0-250-80-250-80L398.33,0l-16.66,20s-80,86.67-270,80h-23.34v360c0,93.33,33.34,233.33,303.34,336.67l6.66,3.33,10.01-3.33c273.33-106.66,303.33-243.33,303.33-336.67V96.66l-23.33,3.34ZM398.33,66.67c33.34,26.67,120,80,266.67,80v73.33c-173.33,0-246.66-80-246.66-80l-20-20-16.66,20s-76.67,80-246.67,80v-73.33c143.34,0,230-53.33,263.33-80h0ZM665,460c0,50,0,183.33-266.67,290-266.66-106.67-266.66-240-266.66-290v-216.67c146.67,0,233.33-53.33,266.66-80,33.34,26.67,120,80,266.67,80v216.67ZM665,460"/>
  <path d="M345,373.33l-116.67,20,86.66,80-16.66,113.33,103.33-56.67,103.33,53.33-23.34-113.33,83.33-83.33-116.66-13.34-53.33-106.66-50,106.66ZM345,373.33"/>
</svg>