<?xml version="1.0" encoding="UTF-8"?>
<svg id="_图层_1" data-name="图层_1" xmlns="http://www.w3.org/2000/svg" version="1.1" viewBox="0 0 800 800">
  <!-- Generator: Adobe Illustrator 29.1.0, SVG Export Plug-In . SVG Version: 2.1.0 Build 142)  -->
  <path d="M191.43,394.29v-121.11c.92-2.8,1.43-5.79,1.43-8.89,0-114.29,92.86-207.14,207.14-207.14s207.14,92.86,207.14,207.14c0,4.44,1.03,8.65,2.86,12.41v117.59c58.57,0,105.72-47.14,105.72-105.71,0-42.7-25.06-79.32-61.33-96.03C623.03,81.57,520.85,0,400,0s-223.49,81.95-254.59,193.3c-35.39,17.05-59.7,53.22-59.7,95.27,0,58.57,47.15,105.71,105.71,105.71Z"/>
  <path d="M497.14,434.29c50-32.86,84.29-88.57,84.29-152.86,0-100-81.43-181.43-181.43-181.43s-181.43,81.43-181.43,181.43c0,64.29,34.29,120,84.29,152.86-150,42.85-261.43,180-261.43,344.28,0,11.43,10,21.43,21.43,21.43h674.29c11.43,0,21.43-10,21.43-21.43,0-162.86-111.43-301.43-261.43-344.28Z"/>
</svg>