<?xml version="1.0" encoding="UTF-8"?>
<svg id="_图层_1" data-name="图层_1" xmlns="http://www.w3.org/2000/svg" version="1.1" viewBox="0 0 800 613.63">
  <!-- Generator: Adobe Illustrator 29.1.0, SVG Export Plug-In . SVG Version: 2.1.0 Build 142)  -->
  <path d="M138.69,140.04c39.76,0,71.93-28.95,71.93-64.45S178.45,11.09,138.69,11.09s-71.88,28.99-71.88,64.5,32.18,64.45,71.88,64.45Z"/>
  <path d="M79.08,166.09l-45.13,69.6,83.55,52.1s55.65,28.44,29.22,81.83C121.67,420.19,0,530.93,0,530.93l109.1,68.04c75.33-163.64,70.61-141.83,89.59-200.62,19.45-60.09,23.59-105.93-9.28-138.93-42.57-42.6-47.28-46.54-110.33-93.32Z"/>
  <path d="M786.42,147.8s-23.41-184.21-426.72-70.01c17.1-29.98,25.57-49.63,25.57-49.63L284.47,0s-40.61,132.43-113.03,194.3c0,0,70.07,40.38,69.32,39.25,20.05-20.03,37.95-40.5,53.75-60.28,16.01-7.1,31.58-13.62,46.72-19.83-18.54,33.61-48.7,83.76-78.84,115.45l42.44,37.12s28.82-27.79,60.47-61.35h36.1v61.89h-140.6v49.43h140.6v118.59c-1.8-.06-3.65-.06-5.37-.3-15.46-.69-39.76-3.27-49.07-18.16-11.47-18.13-3.12-51.44-2.48-71.97h-96.89l-3.52,1.84s-35.34,158.98,102.53,155.46c128.96,3.48,202.96-35.88,238.43-63.12l14.17,52.59,79.6-33.08-53.74-131.93-64.75,20.09,12.15,45.26c-16.63,12.32-35.83,21.58-56.28,28.46v-103.73h137.01v-49.43h-137.02v-61.89h137.6v-49.42h-244.44c17.57-21.47,31.4-41.01,35.13-53.57l-42.57-11.49c182.69-65.35,284.51-54.21,283.58,53.04v282.57s10.86,97.23-100.44,90.16l-60.11-12.96-14.08,57.16s259.66,74.13,280.94-125.46c21.2-199.64-5.37-326.91-5.37-326.91Z"/>
</svg>