<?xml version="1.0" encoding="UTF-8"?>
<svg id="_图层_1" data-name="图层_1" xmlns="http://www.w3.org/2000/svg" version="1.1" viewBox="0 0 800 800">
  <!-- Generator: Adobe Illustrator 29.1.0, SVG Export Plug-In . SVG Version: 2.1.0 Build 142)  -->
  <path d="M542.86,171.43h-85.72v228.57c0,31.6-25.54,57.15-57.14,57.15s-57.14-25.55-57.14-57.15v-228.57h-85.71c-15.78,0-28.58-12.79-28.58-28.58s12.79-28.56,28.58-28.56h285.71c15.77,0,28.58,12.8,28.58,28.56s-12.81,28.58-28.58,28.58h0ZM685.72,0H114.3C51.2,0,0,51.21,0,114.29v358.8c10.97-7.21,22.75-12.75,35.6-15.21,26.28-5.14,94.06-4.73,156.69,105.1,20.4,35.95,40.06,61.31,106.85,61.31h201.44c66.74,0,86.4-25.36,106.85-61.31,62.63-109.78,130.39-110.23,156.62-105.1,12.98,2.52,24.92,8.18,35.95,15.49V114.29c0-63.08-51.2-114.29-114.28-114.29h0ZM685.72,0"/>
  <path d="M753.95,517.78c-31.2-5.77-66.46,22.11-97.6,76.8-31.04,54.34-69.43,90.64-155.83,90.64h-201.38c-86.45,0-124.79-36.3-155.88-90.64-31.09-54.73-66.69-82.63-97.54-76.8C23.95,521.89,6.46,543.66,0,573.26v112.45c0,42.8,23.83,79.73,58.63,99.26,7.43-55.94,54.8-99.26,112.8-99.26,31.59,0,57.14,51.2,57.14,114.29h-114.28c0-63.09,25.54-114.29,57.14-114.29,63.08,0,114.28,51.2,114.28,114.29h57.14c0-31.59,25.55-57.14,57.14-57.14s57.14,25.55,57.14,57.14h57.14c0-63.09,51.21-114.29,114.3-114.29,31.59,0,57.14,51.2,57.14,114.29h-114.29c0-63.09,25.54-114.29,57.14-114.29,58,0,105.36,43.32,112.79,99.26,34.8-19.54,58.63-56.46,58.63-99.26v-111.43c-6.28-30.17-24-52.33-46.05-56.51h0ZM753.95,517.78"/>
</svg>