<?xml version="1.0" encoding="UTF-8"?>
<svg id="_图层_1" data-name="图层_1" xmlns="http://www.w3.org/2000/svg" version="1.1" viewBox="0 0 800 800">
  <!-- Generator: Adobe Illustrator 29.1.0, SVG Export Plug-In . SVG Version: 2.1.0 Build 142)  -->
  <path d="M541.55,272.68c9.2,0,18.28.67,27.27,1.65-24.49-112.87-146.46-196.75-285.67-196.75C127.5,77.58,0,182.57,0,315.87c0,76.94,42.43,140.12,113.3,189.13l-28.32,84.3,98.98-49.13c35.44,6.92,63.84,14.07,99.19,14.07,8.88,0,17.67-.43,26.43-1.13-5.54-18.72-8.76-38.35-8.76-58.69,0-122.4,106.23-221.75,240.73-221.75h0ZM389.34,196.71c21.32,0,35.43,13.9,35.43,34.98s-14.11,35.07-35.43,35.07-42.52-14.07-42.52-35.07,21.28-34.98,42.52-34.98h0ZM191.17,266.75c-21.24,0-42.65-14.07-42.65-35.07s21.41-34.98,42.65-34.98,35.35,13.89,35.35,34.98-14.14,35.07-35.35,35.07h0ZM800,491.07c0-112.03-113.29-203.34-240.51-203.34-134.72,0-240.81,91.31-240.81,203.34s106.09,203.3,240.81,203.3c28.18,0,56.63-7,84.94-14.03l77.68,42.08-21.3-70.01c56.85-42.21,99.19-98.16,99.19-161.34h0ZM481.41,455.99c-14.09,0-28.32-13.88-28.32-28.03s14.23-28.01,28.32-28.01c21.41,0,35.43,14.05,35.43,28.01s-14.02,28.03-35.43,28.03h0ZM637.14,455.99c-13.98,0-28.12-13.88-28.12-28.03s14.14-28.01,28.12-28.01c21.24,0,35.43,14.05,35.43,28.01s-14.2,28.03-35.43,28.03h0ZM637.14,455.99"/>
</svg>