<?xml version="1.0" encoding="UTF-8"?>
<svg id="_图层_1" data-name="图层_1" xmlns="http://www.w3.org/2000/svg" version="1.1" viewBox="0 0 800 800">
  <!-- Generator: Adobe Illustrator 29.1.0, SVG Export Plug-In . SVG Version: 2.1.0 Build 142)  -->
  <path d="M68.53,330.8H12.92c4.84,72.55-12.92,127.57-12.92,127.57l29.82,54.65c39.53-16.94,38.72-182.22,38.72-182.22M249.16,330.8h-55.66s-.82,165.28,38.72,182.22l29.82-54.65s-17.72-55.02-12.88-127.57M103.64,497.01h-35.07c0,40.99,34.66,44.6,34.66,44.6h17.72c35.62,0,37.08-40.72,37.08-40.72v-242.64h-54.39v238.77ZM290.81,380.79h36.26l-27.66,56.44s-16.12,31.72,9.68,32.8h60.2l24.05-43.66h-30.08c-1.78,0-3.43-.93-4.37-2.45-.93-1.52-1.01-3.41-.21-5l44.97-88.08h-52.15l-3.09,6.33h-3.46c-1.78,0-3.43-.93-4.37-2.45-.93-1.52-1.01-3.41-.21-5l37.45-71.44h-52.16l-44.52,89.72s-16.12,31.72,9.68,32.8M298.74,487.59s-6.66.6-11.1-3.83l-26.99,52.01s4.43,6.03,13.52,6.03h66.93l28.63-54.2h-70.99ZM298.74,487.59"/>
  <path d="M500.96,330.8h34.4v-55.36h-123.07v55.36h34.92v158.55h-51.6l-25.91,52.27h183.42v-52.27h-52.16v-158.55ZM747.55,371.63h-6.33v-35.81c0-33.54-27.18-60.72-60.72-60.72h-20.96v-16.9h-53.2v16.9h-33.39v54.28h33.39v42.25h-53.23v54.27h53.2v115.7h53.2v-115.66h73.22c7.18,0,13.03,5.84,13.03,13.03v56.99h-50.77c0,25.2,20.44,45.64,45.64,45.64h13.74c25.2,0,45.64-20.44,45.64-45.64v-71.78c.07-29.04-23.45-52.56-52.45-52.56M659.54,329.42h19.14c4.58,0,8.26,3.69,8.26,8.26v33.95h-27.4v-42.22ZM659.54,329.42"/>
  <path d="M799.29,301.76c0-14.56-11.8-26.36-26.32-26.36-6.99,0-13.7,2.78-18.64,7.72-4.94,4.94-7.72,11.65-7.72,18.64v26.36h26.36c14.52,0,26.32-11.8,26.32-26.36"/>
</svg>